# xmcd CD database file
#
# Track frame offsets:
#	150
#	14812
#	32204
#	51680
#	67713
#	84586
#	99613
#	113143
#	125130
#	143758
#	160866
#	185263
#
# Disc length: 2665 seconds
#
# Revision: 2
# Processed by: cddbd v1.5.2PL0 Copyright (c) Steve Scherf et al.
# Submitted via: CDex 1.77
#
DISCID=a90a670c
DTITLE=Jeff Turner - Take me Home (Live) D1
DYEAR=2015
DGENRE=Country
TTITLE0=Where I Wanna Go
TTITLE1=Nobody Better (than You)
TTITLE2=Can You Forgive Me
TTITLE3=Caroline
TTITLE4=Sometimes That's all that it takes
TTITLE5=Della and The Dealer
TTITLE6=The Country Singer
TTITLE7=Hate and Love - Duet with Larissa Baumann
TTITLE8=If Only
TTITLE9=Amity
TTITLE10=Hallelujah (Amazing Grace)
TTITLE11=Another Day
EXTD=YEAR: 2015
EXTT0=
EXTT1=
EXTT2=
EXTT3=
EXTT4=
EXTT5=
EXTT6=
EXTT7=
EXTT8=
EXTT9=
EXTT10=
EXTT11=
PLAYORDER=
